<?xml version="1.0" encoding="utf-8"?>
<!-- Generator: Adobe Illustrator 26.0.0, SVG Export Plug-In . SVG Version: 6.00 Build 0)  -->
<svg version="1.1" id="Layer_1" xmlns="http://www.w3.org/2000/svg" xmlns:xlink="http://www.w3.org/1999/xlink" x="0px" y="0px"
	 viewBox="0 0 2000 2000" style="enable-background:new 0 0 2000 2000;" xml:space="preserve">
<style type="text/css">
	.st0{fill:#000831;}
</style>
<g>
	<g>
		<path class="st0" d="M616.72,1118.24v97.48h-22.53v-97.48H616.72z"/>
		<path class="st0" d="M701.95,1184.37h-50.98c0.35,4.57,1.82,8.06,4.41,10.47c2.59,2.42,5.77,3.62,9.55,3.62
			c5.62,0,9.53-2.37,11.72-7.11h23.98c-1.23,4.83-3.45,9.18-6.65,13.04c-3.21,3.87-7.23,6.9-12.05,9.09
			c-4.83,2.2-10.23,3.29-16.2,3.29c-7.2,0-13.61-1.54-19.23-4.61c-5.62-3.07-10.01-7.46-13.17-13.17
			c-3.16-5.71-4.74-12.38-4.74-20.02s1.56-14.31,4.68-20.02c3.12-5.71,7.49-10.1,13.11-13.17c5.62-3.07,12.07-4.61,19.36-4.61
			c7.11,0,13.44,1.49,18.97,4.48c5.53,2.99,9.86,7.25,12.98,12.78c3.12,5.53,4.68,11.99,4.68,19.37
			C702.35,1179.89,702.21,1182.08,701.95,1184.37z M679.29,1171.85c0-3.86-1.32-6.94-3.95-9.22c-2.63-2.28-5.93-3.42-9.88-3.42
			c-3.78,0-6.96,1.1-9.55,3.29c-2.59,2.2-4.2,5.32-4.81,9.35H679.29z"/>
		<path class="st0" d="M779.61,1149.79c5.14,5.58,7.71,13.24,7.71,22.99v42.95h-22.4v-39.92c0-4.92-1.27-8.74-3.82-11.46
			c-2.55-2.72-5.97-4.08-10.28-4.08c-4.3,0-7.73,1.36-10.28,4.08c-2.55,2.72-3.82,6.54-3.82,11.46v39.92H714.2v-73.51h22.53v9.75
			c2.28-3.25,5.36-5.82,9.22-7.71c3.86-1.89,8.21-2.83,13.04-2.83C767.6,1141.42,774.47,1144.21,779.61,1149.79z"/>
		<path class="st0" d="M815.77,1213.48c-5.01-2.19-8.96-5.2-11.86-9.02c-2.9-3.82-4.52-8.1-4.87-12.84h22.26
			c0.26,2.55,1.45,4.61,3.56,6.19c2.11,1.58,4.7,2.37,7.77,2.37c2.81,0,4.98-0.55,6.52-1.65c1.54-1.1,2.31-2.52,2.31-4.28
			c0-2.11-1.1-3.67-3.29-4.68c-2.2-1.01-5.75-2.13-10.67-3.36c-5.27-1.23-9.66-2.52-13.17-3.89c-3.51-1.36-6.54-3.51-9.09-6.46
			c-2.55-2.94-3.82-6.92-3.82-11.92c0-4.21,1.16-8.06,3.49-11.53c2.33-3.47,5.75-6.21,10.28-8.23c4.52-2.02,9.9-3.03,16.14-3.03
			c9.22,0,16.49,2.29,21.8,6.85c5.31,4.57,8.37,10.63,9.16,18.18h-20.81c-0.35-2.55-1.47-4.57-3.36-6.06
			c-1.89-1.49-4.37-2.24-7.44-2.24c-2.63,0-4.66,0.51-6.06,1.51c-1.41,1.01-2.11,2.39-2.11,4.15c0,2.11,1.12,3.69,3.36,4.74
			c2.24,1.05,5.73,2.11,10.47,3.16c5.44,1.41,9.88,2.79,13.31,4.15c3.42,1.36,6.43,3.56,9.02,6.59c2.59,3.03,3.93,7.09,4.02,12.19
			c0,4.3-1.21,8.15-3.62,11.53c-2.42,3.38-5.88,6.04-10.41,7.97c-4.52,1.93-9.77,2.9-15.74,2.9
			C826.48,1216.77,820.78,1215.68,815.77,1213.48z"/>
		<path class="st0" d="M876.7,1158.94c3.12-5.71,7.46-10.1,13.04-13.17c5.58-3.07,11.97-4.61,19.17-4.61
			c9.22,0,16.93,2.42,23.12,7.25c6.19,4.83,10.25,11.64,12.19,20.42h-23.98c-2.02-5.62-5.93-8.43-11.72-8.43
			c-4.13,0-7.42,1.6-9.88,4.81c-2.46,3.21-3.69,7.79-3.69,13.77c0,5.97,1.23,10.56,3.69,13.77c2.46,3.21,5.75,4.81,9.88,4.81
			c5.8,0,9.7-2.81,11.72-8.43h23.98c-1.93,8.61-6.02,15.37-12.25,20.29c-6.24,4.92-13.92,7.38-23.05,7.38
			c-7.2,0-13.59-1.54-19.17-4.61c-5.58-3.07-9.93-7.46-13.04-13.17c-3.12-5.71-4.68-12.38-4.68-20.02S873.58,1164.65,876.7,1158.94z
			"/>
		<path class="st0" d="M956,1158.94c2.85-5.71,6.74-10.1,11.66-13.17c4.92-3.07,10.41-4.61,16.47-4.61c5.18,0,9.73,1.05,13.63,3.16
			c3.91,2.11,6.92,4.87,9.02,8.3v-10.41h22.53v73.51h-22.53v-10.41c-2.2,3.42-5.25,6.19-9.16,8.3c-3.91,2.11-8.45,3.16-13.63,3.16
			c-5.97,0-11.42-1.56-16.34-4.68c-4.92-3.12-8.81-7.55-11.66-13.3c-2.85-5.75-4.28-12.4-4.28-19.96
			C951.72,1171.28,953.15,1164.65,956,1158.94z M1002.11,1165.66c-3.12-3.25-6.92-4.87-11.4-4.87s-8.28,1.6-11.4,4.81
			c-3.12,3.21-4.68,7.62-4.68,13.24c0,5.62,1.56,10.08,4.68,13.37c3.12,3.29,6.92,4.94,11.4,4.94s8.28-1.62,11.4-4.87
			c3.12-3.25,4.68-7.68,4.68-13.3C1006.79,1173.35,1005.22,1168.91,1002.11,1165.66z"/>
		<path class="st0" d="M1078.05,1144.91c3.95-2.33,8.34-3.49,13.17-3.49v23.84h-6.19c-5.62,0-9.84,1.21-12.65,3.62
			c-2.81,2.42-4.22,6.65-4.22,12.71v34.12h-22.53v-73.51h22.53v12.25C1070.81,1150.42,1074.1,1147.24,1078.05,1144.91z"/>
		<path class="st0" d="M1170.93,1184.37h-50.98c0.35,4.57,1.82,8.06,4.41,10.47c2.59,2.42,5.77,3.62,9.55,3.62
			c5.62,0,9.53-2.37,11.72-7.11h23.98c-1.23,4.83-3.45,9.18-6.65,13.04c-3.21,3.87-7.23,6.9-12.05,9.09
			c-4.83,2.2-10.23,3.29-16.2,3.29c-7.2,0-13.61-1.54-19.23-4.61c-5.62-3.07-10.01-7.46-13.17-13.17
			c-3.16-5.71-4.74-12.38-4.74-20.02s1.56-14.31,4.68-20.02c3.12-5.71,7.49-10.1,13.11-13.17c5.62-3.07,12.07-4.61,19.36-4.61
			c7.11,0,13.44,1.49,18.97,4.48c5.53,2.99,9.86,7.25,12.98,12.78c3.12,5.53,4.68,11.99,4.68,19.37
			C1171.32,1179.89,1171.19,1182.08,1170.93,1184.37z M1148.27,1171.85c0-3.86-1.32-6.94-3.95-9.22c-2.63-2.28-5.93-3.42-9.88-3.42
			c-3.78,0-6.96,1.1-9.55,3.29c-2.59,2.2-4.2,5.32-4.81,9.35H1148.27z"/>
		<path class="st0" d="M1195.95,1213.48c-5.01-2.19-8.96-5.2-11.86-9.02c-2.9-3.82-4.52-8.1-4.87-12.84h22.26
			c0.26,2.55,1.45,4.61,3.56,6.19c2.11,1.58,4.7,2.37,7.77,2.37c2.81,0,4.98-0.55,6.52-1.65c1.54-1.1,2.31-2.52,2.31-4.28
			c0-2.11-1.1-3.67-3.29-4.68c-2.2-1.01-5.75-2.13-10.67-3.36c-5.27-1.23-9.66-2.52-13.17-3.89c-3.51-1.36-6.54-3.51-9.09-6.46
			c-2.55-2.94-3.82-6.92-3.82-11.92c0-4.21,1.16-8.06,3.49-11.53c2.33-3.47,5.75-6.21,10.28-8.23c4.52-2.02,9.9-3.03,16.14-3.03
			c9.22,0,16.49,2.29,21.8,6.85c5.31,4.57,8.37,10.63,9.16,18.18h-20.81c-0.35-2.55-1.47-4.57-3.36-6.06
			c-1.89-1.49-4.37-2.24-7.44-2.24c-2.63,0-4.66,0.51-6.06,1.51c-1.41,1.01-2.11,2.39-2.11,4.15c0,2.11,1.12,3.69,3.36,4.74
			c2.24,1.05,5.73,2.11,10.47,3.16c5.44,1.41,9.88,2.79,13.31,4.15c3.42,1.36,6.43,3.56,9.02,6.59c2.59,3.03,3.93,7.09,4.02,12.19
			c0,4.3-1.21,8.15-3.62,11.53c-2.42,3.38-5.88,6.04-10.41,7.97c-4.52,1.93-9.77,2.9-15.74,2.9
			C1206.67,1216.77,1200.96,1215.68,1195.95,1213.48z"/>
		<path class="st0" d="M1257.54,1213.28c-2.5-2.33-3.75-5.2-3.75-8.63c0-3.51,1.25-6.46,3.75-8.83c2.5-2.37,5.73-3.56,9.68-3.56
			c3.86,0,7.05,1.19,9.55,3.56c2.5,2.37,3.75,5.32,3.75,8.83c0,3.42-1.25,6.3-3.75,8.63c-2.5,2.33-5.69,3.49-9.55,3.49
			C1263.27,1216.77,1260.04,1215.61,1257.54,1213.28z"/>
		<path class="st0" d="M1295.48,1131.08c-2.5-2.33-3.75-5.2-3.75-8.63c0-3.51,1.25-6.43,3.75-8.76c2.5-2.33,5.73-3.49,9.68-3.49
			c3.86,0,7.05,1.17,9.55,3.49c2.5,2.33,3.75,5.25,3.75,8.76c0,3.42-1.25,6.3-3.75,8.63c-2.5,2.33-5.69,3.49-9.55,3.49
			C1301.21,1134.57,1297.98,1133.41,1295.48,1131.08z M1316.36,1142.21v73.51h-22.53v-73.51H1316.36z"/>
		<path class="st0" d="M1398.1,1149.79c5.14,5.58,7.71,13.24,7.71,22.99v42.95h-22.4v-39.92c0-4.92-1.27-8.74-3.82-11.46
			c-2.55-2.72-5.97-4.08-10.28-4.08c-4.3,0-7.73,1.36-10.28,4.08c-2.55,2.72-3.82,6.54-3.82,11.46v39.92h-22.53v-73.51h22.53v9.75
			c2.28-3.25,5.36-5.82,9.22-7.71c3.86-1.89,8.21-2.83,13.04-2.83C1386.09,1141.42,1392.97,1144.21,1398.1,1149.79z"/>
	</g>
	<g>
		<path class="st0" d="M1261.16,836c-6.69-8.27-14.19-15.87-22.56-22.26c-8.36-6.4-17.34-11.92-26.8-16.44
			c-18.93-9.07-39.92-13.79-61.42-14.07c-21.52-0.08-42.36,5-61.01,12.74c-18.62,8.02-35.25,18.65-50.1,30.75
			c-7.38,6.12-14.33,12.6-20.9,19.37c-6.56,6.85-12.85,13.94-18.37,21.21c-5.58,7.23-10.82,14.49-15.75,21.67
			c-4.95,7.15-9.48,14.38-14.01,21.37c-9.07,13.93-17.5,27.42-26.68,39.66c-1.17,1.49-2.31,3.01-3.45,4.54
			c-1.16,1.59-2.22,2.85-3.35,4.28c-2.26,2.75-4.62,5.4-7.07,7.97c-4.96,5.07-10.23,9.85-15.92,14.18
			c-5.68,4.34-11.82,8.07-18.23,11.51c-6.43,3.39-13.26,6.1-20.32,8.42c-14.15,4.56-29.43,6.66-44.92,6.11
			c-7.74-0.3-15.49-1.48-22.94-3.7c-7.47-2.14-14.78-5.41-20.18-11.17l-3.13,1.76c2.2,3.96,5.34,7.15,8.71,9.89
			c3.39,2.73,7.09,5,10.91,6.94c7.67,3.88,15.86,6.52,24.19,8.29c16.69,3.51,34.02,3.59,50.81,0.65
			c16.8-2.96,33.01-9.14,47.64-17.92c14.66-8.72,27.64-20.24,38.65-33.07c22.32-25.45,39.81-54.27,61.11-79.66
			c10.61-12.7,22.29-24.43,35.23-34.65c12.9-10.22,26.97-18.98,42.04-25.31c15.01-6.42,31.11-10.32,47.35-10.51
			c8.11-0.05,16.23,0.72,24.2,2.36c7.95,1.68,15.74,4.16,23.21,7.4c14.89,6.55,28.49,16.16,39.17,28.41
			c10.67,12.2,18.34,27.07,21.49,42.98c3.22,15.86,2.28,32.66-2.39,48.21c-4.67,15.58-13.5,29.84-25.2,41.15
			c-11.68,11.33-26.31,19.72-42.15,23.75c-15.79,4.1-32.82,3.66-48.26-1.82l-1.23,3.38c3.74,2.24,7.72,4.17,11.9,5.69
			c4.17,1.56,8.51,2.81,12.97,3.71c8.93,1.7,18.25,1.94,27.55,0.92c18.65-1.98,36.94-9.77,52.38-21.84
			c15.4-12.1,27.95-28.77,35.23-47.85c1.85-4.75,3.4-9.63,4.65-14.59c1.23-4.96,2.09-10.01,2.69-15.08
			c1.18-10.01,1.27-20.75-0.27-31.23C1283.67,873.03,1274.56,852.52,1261.16,836z"/>
		<path class="st0" d="M782.68,1013.32l-2.27-2c-1.5-1.36-3.07-2.61-4.51-4.03l-4.19-4.37l-2.1-2.17c-0.66-0.76-1.28-1.58-1.92-2.35
			l-3.81-4.69c-1.3-1.56-2.29-3.31-3.47-4.95c-1.1-1.68-2.33-3.29-3.33-5.03l-2.97-5.27c-7.86-14.03-12.55-29.81-13.53-45.77
			c-0.7-8,0.14-16,1.34-23.89c0.42-1.96,0.94-3.89,1.4-5.83c0.5-1.94,0.84-3.91,1.58-5.79c1.36-3.75,2.47-7.62,4.29-11.19
			c12.95-29.35,38.97-52.62,69.28-62.6l5.77-1.62l2.87-0.8l2.95-0.52l5.87-1.06c1.98-0.3,3.97-0.34,5.95-0.52
			c7.9-0.8,15.96-0.26,23.86,0.88c3.97,0.5,7.86,1.44,11.77,2.29c3.85,1.1,7.74,2.08,11.49,3.51c3.83,1.22,7.5,2.87,11.21,4.39
			c3.63,1.76,7.3,3.39,10.81,5.37c3.61,1.82,7.02,3.97,10.52,6.01c3.35,2.23,6.8,4.35,10.06,6.76c3.33,2.29,6.49,4.83,9.68,7.3
			c3.11,2.61,6.27,5.15,9.24,7.9c6.07,5.39,11.79,11.17,17.32,17.16c1.96,2.1,3.89,4.23,5.79,6.39c0.8-1.2,1.62-2.37,2.43-3.57
			c5.39-7.86,10.66-15.09,16.04-22.09c0.76-1,1.56-2.02,2.35-3.03c-0.36-0.4-0.72-0.82-1.08-1.22c-2.93-3.39-6.09-6.7-9.22-10.04
			c-3.25-3.31-6.5-6.64-9.94-9.82c-6.82-6.39-14.13-12.35-21.85-17.94c-3.77-2.85-7.84-5.45-11.83-8.12
			c-4.15-2.49-8.22-5.09-12.57-7.34c-4.25-2.39-8.82-4.37-13.27-6.47c-4.65-1.88-9.2-3.83-14.05-5.37
			c-4.71-1.72-9.7-2.97-14.63-4.29c-5.05-1.08-10.06-2.23-15.24-2.81c-2.57-0.36-5.15-0.68-7.78-0.8c-2.61-0.14-5.23-0.36-7.86-0.4
			l-7.88,0.06c-1.32-0.02-2.65,0.08-4.01,0.22l-4.05,0.38c-2.67,0.3-5.39,0.46-8.04,0.92l-7.9,1.56l-3.93,0.82
			c-1.28,0.34-2.55,0.74-3.81,1.12l-7.58,2.41c-2.51,0.82-4.89,1.96-7.32,2.93c-2.39,1.06-4.89,1.98-7.16,3.19l-6.9,3.65
			c-1.14,0.64-2.29,1.22-3.39,1.88l-3.27,2.1l-6.47,4.23c-2.1,1.46-4.07,3.11-6.09,4.69l-2.99,2.39c-1,0.8-1.98,1.62-2.87,2.51
			l-5.57,5.25c-0.9,0.9-1.86,1.74-2.71,2.67l-2.55,2.83l-5.05,5.69c-1.6,1.96-3.09,4.01-4.63,6.03c-1.48,2.08-3.11,3.99-4.39,6.21
			c-2.61,4.35-5.43,8.54-7.56,13.19l-3.35,6.8c-0.98,2.35-1.88,4.73-2.81,7.1c-1.96,4.65-3.25,9.64-4.57,14.55
			c-0.74,2.41-1.06,4.99-1.52,7.48c-0.44,2.53-0.88,5.03-1.24,7.54l-0.56,7.64c-0.18,2.53-0.36,5.07-0.2,7.6
			c0.12,5.09,0.3,10.14,1.18,15.09c0.4,2.47,0.7,4.95,1.2,7.36l1.78,7.2l0.92,3.57c0.34,1.18,0.78,2.31,1.16,3.47
			c0.8,2.31,1.66,4.59,2.49,6.86c0.82,2.27,2,4.41,2.97,6.6c1.06,2.15,1.98,4.37,3.17,6.45l3.59,6.17l1.82,3.03l2.08,2.89
			c10.87,15.36,24.48,28.37,40.33,37.23l6.01,3.13c1,0.5,1.96,1.08,2.99,1.5l3.11,1.3l6.17,2.53c2.1,0.72,4.23,1.36,6.35,1.98
			c8.5,2.43,17.24,3.55,25.74,3.69l0.68-3.53c-15.82-3.37-30.67-10.62-43.42-20.51C784.2,1014.66,783.42,1014,782.68,1013.32z"/>
		<path class="st0" d="M1214.56,1026.81l-5.53,2.53l-5.59,2.14l-5.65,1.64l-5.71,1.14c-2.3,0.42-4.59,0.72-6.86,0.94
			c-5.31,0.48-10.6,0.44-15.78-0.1c-14.85-1.52-29.07-6.17-41.24-13.25c-12.47-7.1-23.57-16.56-33.74-27.22
			c-5.03-5.41-9.94-11.03-14.65-16.96c-4.71-5.91-9.16-12.17-13.69-18.48c-4.51-6.35-8.94-12.91-13.31-19.63l-13.45-20.31
			c-3.65-5.61-7.42-11.23-11.29-16.9c-7,8.78-13.63,17.88-20.49,27.38c11.85,15.98,23.59,32.17,36.32,47.65
			c10.54,12.79,21.83,25.06,34.54,35.92c12.67,10.84,26.82,20.21,42.44,26.52c15.66,6.21,32.66,9.02,49.47,7.7
			c16.74-1.28,33.44-7.08,46.49-17.92l-0.24-0.3L1214.56,1026.81z"/>
		<path class="st0" d="M701.01,859.27c4.68-11.05,10.75-21.53,18.02-31.09c7.2-9.61,15.59-18.39,25.16-25.71l-1.3-1.77
			c-6.21,1.92-12.21,4.67-17.8,8.1c-5.63,3.4-10.93,7.38-15.87,11.83c-9.88,8.89-18.33,19.57-24.89,31.48l-2.42,4.5l-2.18,4.64
			c-0.99,2.23-1.92,4.49-2.81,6.77c-1.03-0.07-2.07-0.12-3.1-0.14c-6.01-0.04-12.01,0.57-17.9,2.14c-2.93,0.83-5.88,1.82-8.59,3.87
			c-0.33,0.29-0.66,0.56-0.98,0.88c-0.29,0.33-0.66,0.71-0.85,1.01c-0.45,0.64-0.93,1.27-1.32,1.94c-0.85,1.32-1.52,2.73-2.16,4.14
			c-2.42,5.74-3.22,11.89-3.48,17.86c-0.25,5.89-0.15,12.25,2.24,18.18c1.19,2.95,3.05,5.73,5.48,7.9c2.43,2.18,5.38,3.65,8.36,4.64
			c5.4,1.74,10.91,2.03,16.28,2.04l0.21,1.12l0.92-1.12c0.24,0,0.48,0,0.72,0c5.97-0.08,11.85-0.53,17.62-0.52l2.58,0.01l-0.47-2.56
			c-2.17-11.7-2.52-23.75-0.95-35.61C693.06,881.96,696.34,870.32,701.01,859.27z M660.88,911.07c-1.04-0.17-1.36-0.29-1.53-0.11
			c-0.14,0.13-0.42,0.28-0.94-0.35c-0.48-0.6-1.08-1.91-1.56-3.64c-0.25-0.84-0.41-1.85-0.59-2.86c-0.18-1.18-0.33-2.55-0.46-3.75
			c-0.67-4.95-0.81-9.27-0.44-12.89c0.12-0.88,0.27-1.76,0.46-2.59c0.07-0.44,0.21-0.82,0.32-1.25l0.04-0.16
			c-0.02,0-0.09,0.08-0.13,0.11c-0.1,0.09-0.21,0.16-0.33,0.23c-0.19,0.1-0.23,0.08-0.37,0.09c-0.24-0.15,0.3-0.79,1-1.34
			c0.71-0.6,1.63-1.24,2.67-1.82c2.06-1.17,4.5-2.21,6.99-3.19c2.51-0.92,5.13-1.76,7.8-2.47c0.22-0.05,0.45-0.11,0.67-0.16
			c-1.65,5.22-3.08,10.55-3.95,16.03l-0.79,5.22l-0.59,5.27c-0.15,1.77-0.21,3.55-0.3,5.32l-0.05,4.58
			C665.32,911.46,662.43,911.35,660.88,911.07z"/>
		<path class="st0" d="M1361.46,899.73c-0.26-5.98-1.06-12.12-3.48-17.86c-0.63-1.42-1.31-2.83-2.16-4.14
			c-0.39-0.68-0.87-1.3-1.32-1.94c-0.19-0.3-0.56-0.68-0.85-1.01c-0.31-0.32-0.65-0.59-0.98-0.88c-2.71-2.06-5.65-3.04-8.59-3.87
			c-5.89-1.57-11.88-2.18-17.9-2.14c-1.03,0.02-2.07,0.07-3.1,0.14c-0.9-2.28-1.83-4.54-2.81-6.77l-2.18-4.64l-2.42-4.5
			c-6.56-11.91-15.01-22.59-24.89-31.48c-4.94-4.44-10.25-8.43-15.87-11.83c-5.59-3.43-11.59-6.18-17.8-8.1l-1.3,1.77
			c9.57,7.32,17.96,16.1,25.16,25.71c7.27,9.57,13.34,20.04,18.02,31.09c4.67,11.05,7.96,22.69,9.5,34.55
			c1.57,11.86,1.22,23.91-0.95,35.61l-0.47,2.56l2.58-0.01c5.76-0.01,11.65,0.44,17.62,0.52c0.24,0,0.48,0,0.72,0l0.92,1.12
			l0.21-1.12c5.37-0.01,10.88-0.3,16.28-2.04c2.98-0.99,5.93-2.46,8.36-4.64c2.43-2.17,4.29-4.96,5.48-7.9
			C1361.61,911.98,1361.71,905.63,1361.46,899.73z M1344.2,900.37c-0.13,1.2-0.29,2.57-0.46,3.75c-0.18,1.01-0.33,2.02-0.59,2.86
			c-0.48,1.72-1.08,3.03-1.56,3.64c-0.52,0.63-0.8,0.47-0.94,0.35c-0.17-0.18-0.49-0.06-1.53,0.11c-1.54,0.29-4.44,0.39-7.92,0.31
			l-0.05-4.58c-0.09-1.77-0.15-3.55-0.3-5.32l-0.59-5.27l-0.79-5.22c-0.87-5.48-2.3-10.81-3.95-16.03c0.22,0.05,0.45,0.1,0.67,0.16
			c2.67,0.7,5.29,1.54,7.8,2.47c2.49,0.98,4.93,2.01,6.99,3.19c1.04,0.58,1.96,1.21,2.67,1.82c0.7,0.55,1.24,1.19,1,1.34
			c-0.14-0.01-0.18,0.01-0.37-0.09c-0.12-0.07-0.23-0.14-0.33-0.23c-0.05-0.03-0.11-0.11-0.13-0.11l0.04,0.16
			c0.11,0.43,0.25,0.81,0.32,1.25c0.19,0.82,0.35,1.7,0.46,2.59C1345.01,891.1,1344.87,895.42,1344.2,900.37z"/>
		<path class="st0" d="M1060.64,891.88c2.52-0.85,5.02-1.75,7.5-2.66c4.94-1.87,9.7-3.97,14.4-6.06
			c9.38-4.21,18.41-8.54,27.32-12.45c17.81-7.73,35.26-13.9,51.91-14.12c2.08-0.06,4.14,0.04,6.19,0.18
			c2.06,0.11,4.1,0.32,6.13,0.67c1.02,0.15,2.03,0.37,3.04,0.57c0.5,0.12,1.01,0.22,1.52,0.32l1.3,0.31
			c1.76,0.46,3.68,1.14,5.59,1.93c3.83,1.6,7.79,3.53,11.49,5.89c3.79,2.26,7.38,4.9,10.83,7.77c3.43,2.88,6.68,6.03,9.7,9.44
			c1.45,1.74,2.94,3.5,4.31,5.36c1.35,1.87,2.67,3.79,3.94,5.77c2.57,3.97,4.55,8.31,6.53,12.83c1.87,4.55,3.41,9.36,4.8,14.41h1.6
			c0.1-10.27-1.62-20.63-5.38-30.27c-3.74-9.65-9.55-18.45-16.64-25.96c-7.09-7.52-15.47-13.83-24.77-18.44
			c-2.33-1.14-4.73-2.18-7.21-3.02c-2.51-0.84-5-1.46-7.55-2.01c-5.09-1.07-10.29-1.6-15.48-1.59c-10.42-0.05-20.68,2.21-30.41,5.55
			c-9.75,3.37-19.01,7.91-27.9,12.99c-8.89,5.09-17.43,10.73-25.85,16.46c-8.41,5.75-16.61,11.83-25.44,16.73l0.74,1.41
			C1055.5,893.41,1058.06,892.63,1060.64,891.88z"/>
		<path class="st0" d="M943.97,886.2c-13.97-13.05-29.35-24.88-46.51-33.64c-4.33-2.12-8.62-4.27-13.19-5.99
			c-4.53-1.74-9.18-3.15-13.93-4.21c-9.48-2.12-19.32-2.75-28.99-1.7c-9.62,1.26-19.18,3.67-27.92,8.02
			c-8.74,4.29-16.66,10.16-23.35,17.2c-6.66,7.06-12.11,15.19-16.2,23.91c-4.11,8.72-7,18.02-8.4,27.56l2.57,0.36
			c2.06-4.39,3.89-8.66,6.41-12.61c2.21-4.01,4.81-7.78,7.52-11.33c5.47-7.08,11.55-13.27,18.24-18.14
			c6.6-4.93,13.73-8.52,20.99-10.88c1.88-0.5,3.73-0.96,5.51-1.52l5.61-1.04c1.84-0.36,3.79-0.36,5.67-0.58
			c1.9-0.2,3.69-0.28,5.55-0.28c3.67,0.02,7.34,0.34,10.95,0.96c3.63,0.58,7.24,1.38,10.78,2.51c3.53,1.12,6.98,2.51,10.4,4.03
			c3.27,1.48,6.94,3.55,10.5,5.55c7.08,4.07,13.97,8.72,20.55,13.95c6.68,5.09,13.15,10.72,19.48,16.74
			c6.43,5.89,12.63,12.29,18.86,18.88c0.9,0.92,1.78,1.84,2.63,2.77c3.01-4.55,6.05-9.24,9.16-14.05c1.66-2.57,3.33-5.17,5.05-7.78
			c0.04-0.06,0.08-0.14,0.14-0.2C956.22,898.35,950.23,892.14,943.97,886.2z"/>
		<path class="st0" d="M1088.91,1045.35l-3.05-1.74c-2.02-1.2-4.11-2.23-6.05-3.55l-5.79-3.99c-7.52-5.59-14.67-11.71-21.11-18.56
			c-3.37-3.27-6.41-6.9-9.6-10.34c-2.99-3.63-6.13-7.14-9-10.89c-5.93-7.34-11.51-14.99-17.12-22.63
			c-5.57-7.66-11.09-15.36-16.8-22.99c-1.36-1.82-2.73-3.63-4.13-5.45c-4.65,6.35-9.46,12.69-14.49,18.92l0.3,0.34l9.06,10.66
			l9.36,10.8c3.15,3.67,6.41,7.22,9.74,10.84l5.01,5.39c1.68,1.8,3.49,3.51,5.23,5.27c1.72,1.76,3.49,3.49,5.35,5.21
			c1.82,1.72,3.61,3.43,5.47,5.11l5.77,4.89c1.9,1.66,3.85,3.25,5.93,4.75c7.94,6.21,16.7,11.67,25.86,16.04l6.96,3.03
			c2.31,0.98,4.79,1.7,7.16,2.49l3.59,1.08c1.2,0.36,2.45,0.54,3.67,0.82c2.45,0.52,4.89,0.96,7.32,1.36l0.92-2.43l-6.39-2.91
			C1091.03,1046.35,1089.93,1045.93,1088.91,1045.35z"/>
	</g>
</g>
</svg>
